[img]http://img638.imageshack.us/img638/2414/darkeys.jpg[/img]
[code]
The Darkest Hour 2011 TS Xvid READNFO-26K

Imdb: 
http://www.imdb.com/title/tt1093357/

Plot:
In Moscow, five young people lead the charge against an alien race who have attacked Earth via our power supply.

Sources:
RUSSIAN VIDEO
UNKNOWN TS! THNXS TO BOTH!!

Notes:
WHY READNFO the russian cam was very bad!!!! added quite a few filters to get the video to look nice!!!
as for the audio it was good :P i did have the audio for this movie last night.. was like 3 a.m...to late for me! so i went to sleep..was gonna work on it this mornin... saw unknown up a TS! thnxs bro good work!
that been said added filter to increase the overall birghtness of the video as it was veyr veyr dark!
added few sharpness filters :) so enjoy!
a new source coming your way soon!!

Greetz:
Xtreme Encode|FYA|ILLUMANTI|CM8|RX|VISION|HDSCENE|NIGHTMAREZ|xTriLL|DTRG|CRYS|REMIXHD|BIDA
To all the people who have helped me :P you know who you are

Anything to offer email us @: 26k@hushmail.me

Video
ID                                       : 0
Format                                   : MPEG-4 Visual
Format profile                           : Advanced Simple@L5
Format settings, BVOP                    : 2
Format settings, QPel                    : No
Format settings, GMC                     : No warppoints
Format settings, Matrix                  : Default (H.263)
Codec ID                                 : XVID
Codec ID/Hint                            : XviD
Duration                                 : 1h 23mn
Bit rate                                 : 1 800 Kbps
Width                                    : 640 pixels
Height                                   : 272 pixels
Display aspect ratio                     : 2.35:1
Frame rate                               : 25.000 fps
Color space                              : YUV
Chroma subsampling                       : 4:2:0
Bit depth                                : 8 bits
Scan type                                : Progressive
Compression mode                         : Lossy
Bits/(Pixel*Frame)                       : 0.414
Stream size                              : 1.04 GiB (93%)
Writing library                          : XviD 63

Audio
ID                                       : 1
Format                                   : MPEG Audio
Format version                           : Version 1
Format profile                           : Layer 3
Codec ID                                 : 55
Codec ID/Hint                            : MP3
Duration                                 : 1h 23mn
Bit rate mode                            : Constant
Bit rate                                 : 128 Kbps
Channel(s)                               : 2 channels
Sampling rate                            : 44.1 KHz
Compression mode                         : Lossy
Stream size                              : 76.0 MiB (7%)
Alignment                                : Aligned on interleaves
Interleave, duration                     : 40 ms (1.00 video frame)

[/code]
Screens:
[img]http://img822.imageshack.us/img822/2087/vlcsnap2011122712h33m28.png[/img]
[img]http://img811.imageshack.us/img811/2166/vlcsnap2011122712h33m38.png[/img]
[img]http://img3.imageshack.us/img3/34/vlcsnap2011122712h33m42.png[/img]
[img]http://img201.imageshack.us/img201/797/vlcsnap2011122712h33m45.png[/img]
[img]http://img190.imageshack.us/img190/1308/vlcsnap2011122712h33m55.png[/img]

[img]http://img851.imageshack.us/img851/5503/26ks.jpg[/img]
Thank you smallz for banner!